<?xml version="1.0" encoding="UTF-8"?>
<svg id="Layer_2" data-name="Layer 2" xmlns="http://www.w3.org/2000/svg" viewBox="0 0 51.06 54.15">
  <defs>
    <style>
      .cls-1 {
        fill: #ff5a5f;
        stroke-width: 0px;
      }
    </style>
  </defs>
  <g id="Layer_1-2" data-name="Layer 1">
    <path class="cls-1" d="M23.98,54.15c14.95,0,27.08-12.13,27.08-27.08S38.93,0,23.98,0c-3.2,0-6.28.56-9.13,1.58-.31-.02-.62-.03-.93-.03C6.59,1.55.57,7.23.05,14.42c-.03.34-.05.7-.05,1.05,0,2.43.62,4.7,1.72,6.7,1.08,1.98,2.65,3.67,4.52,4.9-1.87,1.24-3.43,2.92-4.52,4.9-1.1,2-1.72,4.27-1.72,6.7,0,.36.02.71.05,1.05.53,7.19,6.54,12.87,13.88,12.87.31,0,.62-.02.93-.03,2.85,1.02,5.93,1.58,9.13,1.58ZM22.28,4.35c.56-.06,1.13-.08,1.7-.08,9.62,0,17.89,6.02,21.21,14.48-2.54-3.4-6.59-5.6-11.16-5.6-2.23,0-4.35.53-6.22,1.47-.25-4.21-2.37-7.91-5.54-10.27ZM4.64,15.47c0-.15,0-.31.02-.46,0-.02.02-.02.02-.02.23-4.9,4.3-8.8,9.25-8.8.28,0,.57.02.84.05t.02,0h.03c4.72.45,8.4,4.41,8.4,9.24,0,1.61-.4,3.11-1.11,4.43-.05.06-.08.12-.11.19-1.61,2.79-4.61,4.67-8.06,4.67-5.12,0-9.28-4.16-9.28-9.28ZM24.76,27.08c0-5.12,4.16-9.28,9.28-9.28s9.28,4.16,9.28,9.28-4.16,9.28-9.28,9.28-9.28-4.16-9.28-9.28ZM4.67,39.16s-.02,0-.02-.02c-.02-.15-.02-.31-.02-.46,0-5.12,4.16-9.28,9.28-9.28,3.45,0,6.45,1.89,8.06,4.67.03.06.06.12.11.19.71,1.32,1.11,2.82,1.11,4.43,0,4.83-3.71,8.8-8.43,9.24t-.02,0c-.26.03-.56.05-.84.05-4.95,0-9.02-3.9-9.25-8.8ZM22.28,49.81c3.17-2.37,5.29-6.07,5.54-10.27,1.87.94,3.99,1.47,6.22,1.47,4.56,0,8.62-2.2,11.16-5.6-3.33,8.46-11.59,14.48-21.21,14.48-.57,0-1.14-.02-1.7-.08Z"/>
  </g>
</svg>